<svg width="428" height="926" viewBox="0 0 428 926" fill="none" xmlns="http://www.w3.org/2000/svg">
<g clip-path="url(#clip0_450_90)">
<rect width="428" height="926" fill="white"/>
<path d="M574.18 -205.22C628.141 -180.1 656.738 -123.152 688.833 -72.9879C719.521 -25.0245 751.288 23.3258 756.685 80.0264C762.236 138.357 750.291 198.388 719.399 248.158C688.973 297.176 636.35 324.273 586.786 353.748C533.997 385.141 482.298 431.237 421.163 425.514C359.987 419.788 319.032 363.296 271.565 324.242C225.061 285.981 168.696 255.164 146.187 199.278C123.23 142.282 128.181 76.6591 148.485 18.6627C167.774 -36.4352 213.213 -75.3643 256.163 -114.863C298.463 -153.763 340.993 -193.492 396.251 -209.192C454.501 -225.743 519.276 -230.78 574.18 -205.22Z" fill="#FFD2E8"/>
</g>
<defs>
<clipPath id="clip0_450_90">
<rect width="428" height="926" fill="white"/>
</clipPath>
</defs>
</svg>
